<svg id="Capa_1" enable-background="new 0 0 512 512" height="512" viewBox="0 0 512 512" width="512" xmlns="http://www.w3.org/2000/svg"><g><g><g><path d="m359.642 494.754c-8.263 0-14.961-6.698-14.961-14.961s6.698-14.961 14.961-14.961c44.756 0 81.169-36.413 81.169-81.17v-153.055c0-101.308-82.42-183.728-183.728-183.728s-183.729 82.42-183.729 183.728v137.872c0 8.263-6.698 14.961-14.961 14.961s-14.961-6.698-14.961-14.961v-137.872c0-57.068 22.224-110.721 62.577-151.074 40.354-40.354 94.006-62.577 151.074-62.577s110.721 22.224 151.074 62.577c40.354 40.353 62.577 94.006 62.577 151.074v153.055c0 61.256-49.836 111.092-111.092 111.092z" fill="#c9beb9"/></g></g><g><g><path d="m408.156 79.533c-40.353-40.354-94.006-62.577-151.074-62.577-2.821 0-5.632.07-8.435.178 53.903 2.079 104.281 24.041 142.639 62.399 40.354 40.353 62.577 94.006 62.577 151.074v153.055c0 57.076-43.268 104.229-98.724 110.4 1.421.448 2.933.692 4.503.692 61.255 0 111.091-49.836 111.091-111.092v-153.055c.001-57.068-22.223-110.721-62.577-151.074z" fill="#9e9595"/></g></g><g><path d="m341.173 512h-36.393c-14.107 0-25.543-11.436-25.543-25.543v-13.33c0-14.107 11.436-25.543 25.543-25.543h36.393c14.107 0 25.543 11.436 25.543 25.543v13.33c0 14.107-11.436 25.543-25.543 25.543z" fill="#c9beb9"/></g><g><path d="m344.625 447.815c.147 1.108.231 2.237.231 3.386v13.462c0 14.071-11.406 25.477-25.477 25.477h-36.525c-1.149 0-2.278-.084-3.386-.231 1.657 12.469 12.325 22.091 25.246 22.091h36.525c14.07 0 25.477-11.406 25.477-25.477v-13.462c0-12.921-9.622-23.589-22.091-25.246z" fill="#9e9595"/></g><g><g><path d="m93.898 157.16-35.324-15.926c-6.592-2.972-9.339-10.883-5.991-17.293 39.547-75.713 118.414-123.941 204.5-123.941s164.954 48.229 204.5 123.941c3.348 6.41.601 14.321-5.991 17.293l-35.324 15.926c-6.009 2.709-13.102.327-16.226-5.477-28.909-53.728-85.382-87.848-146.959-87.848s-118.05 34.121-146.959 87.848c-3.123 5.805-10.217 8.186-16.226 5.477z" fill="#c9beb9"/></g></g><g><g><path d="m461.583 123.941c-34.176-65.431-97.722-110.329-169.912-121.318 50.693 20.164 93.53 57.991 119.461 107.636 3.348 6.41.601 14.32-5.992 17.293l-12.645 5.701c4.215 5.848 8.084 11.994 11.547 18.43 3.123 5.805 10.217 8.186 16.226 5.477l35.324-15.926c6.592-2.972 9.339-10.883 5.991-17.293z" fill="#9e9595"/></g></g><g><path d="m68.067 410.223h-19.348c-15.865 0-28.726-12.861-28.726-28.726v-123.364c0-15.865 12.861-28.726 28.726-28.726h19.347c15.865 0 28.726 12.861 28.726 28.726v123.363c.001 15.865-12.86 28.727-28.725 28.727z" fill="#766e6e"/></g><g><path d="m463.281 410.223h-19.347c-15.865 0-28.726-12.861-28.726-28.726v-123.364c0-15.865 12.861-28.726 28.726-28.726h19.347c15.865 0 28.726 12.861 28.726 28.726v123.363c0 15.865-12.861 28.727-28.726 28.727z" fill="#766e6e"/></g><g><path d="m68.485 229.415c.001.115.009.228.009.344v123.512c0 15.824-12.828 28.652-28.652 28.652h-19.497c-.115 0-.229-.007-.344-.009.185 15.665 12.935 28.309 28.643 28.309h19.496c15.824 0 28.652-12.828 28.652-28.652v-123.512c.001-15.709-12.642-28.459-28.307-28.644z" fill="#5b5353"/></g><g><path d="m463.699 229.415c.001.115.009.228.009.344v123.512c0 15.824-12.828 28.652-28.652 28.652h-19.496c-.115 0-.229-.007-.344-.009.185 15.665 12.935 28.309 28.643 28.309h19.496c15.824 0 28.652-12.828 28.652-28.652v-123.512c0-15.709-12.643-28.459-28.308-28.644z" fill="#5b5353"/></g><g><g><path d="m271.225 349.72c-.923 0-1.86-.171-2.77-.533-3.85-1.53-5.729-5.892-4.197-9.74l30.992-77.922c1.531-3.849 5.894-5.73 9.74-4.197 3.85 1.53 5.729 5.892 4.197 9.74l-30.992 77.922c-1.169 2.939-3.989 4.73-6.97 4.73z" fill="#9e9595"/></g></g><g><g><path d="m343.459 349.72c-1.008 0-2.032-.204-3.015-.636-3.792-1.667-5.515-6.093-3.848-9.885l29.631-67.403h-31.377c-4.143 0-7.5-3.357-7.5-7.5s3.357-7.5 7.5-7.5h42.867c2.533 0 4.896 1.279 6.28 3.4s1.605 4.799.586 7.118l-34.254 77.922c-1.235 2.81-3.985 4.484-6.87 4.484z" fill="#5b5353"/></g></g><g><g><path d="m231.199 349.718c-.022 0-.044 0-.066 0-4.142-.036-7.471-3.423-7.435-7.564.041-4.709.082-9.965.122-15.434h-31.417c-2.653 0-5.109-1.402-6.458-3.687s-1.39-5.113-.108-7.437c4.381-7.94 26.461-47.831 30.937-53.321 3.737-4.583 8.773-6.45 13.479-4.994 4.759 1.474 8.141 6.103 8.615 11.792.234 2.807.168 23.627.055 42.646h2.414c4.142 0 7.5 3.357 7.5 7.5s-3.358 7.5-7.5 7.5h-2.514c-.052 7.021-.099 12.717-.124 15.563-.037 4.12-3.388 7.436-7.5 7.436zm-26.057-37.998h18.777c.075-12.813.124-25.174.104-33.056-4.498 7.54-11.633 20.066-18.881 33.056z" fill="#5b5353"/></g></g><g><g><path d="m154.757 350.497c-14.973 0-16.074-.367-17.081-.703-2.5-.833-4.367-2.722-5.124-5.182-1.305-4.241.518-6.627 5.389-13.005 3.962-5.188 11.339-14.847 23.698-32.506 3.671-5.244 6.039-9.941 7.041-13.969l.266-2.083c-.223-6.664-5.714-12.017-12.432-12.017-5.932 0-11.065 4.214-12.206 10.02-.799 4.064-4.741 6.707-8.805 5.914-4.064-.799-6.712-4.74-5.914-8.805 2.519-12.822 13.842-22.129 26.924-22.129 15.129 0 27.438 12.309 27.438 27.438 0 .317-.02.635-.061.949l-.385 3.015c-.032.251-.076.499-.133.745-1.387 5.981-4.565 12.55-9.446 19.522-9.208 13.155-15.698 21.946-20.092 27.777 7.379.024 16.89-.066 25.825-.179 4.146-.032 7.542 3.264 7.594 7.404.052 4.143-3.263 7.542-7.405 7.594-11.093.142-19.175.2-25.091.2z" fill="#5b5353"/></g></g></g></svg>