<svg id="Capa_1" enable-background="new 0 0 512.084 512.084" height="512" viewBox="0 0 512.084 512.084" width="512" xmlns="http://www.w3.org/2000/svg"><g><path d="m32.106 191.852v-106.972c0-46.878 38.002-84.88 84.88-84.88h86.7c15.272 0 29.418 8.033 37.242 21.149 26.957-5.259 52.015 15.384 52.015 42.849v127.854z" fill="#365e7d"/><path d="m242.011 20.951c-.652.111-1.306-.182-1.659-.74-7.929-12.56-21.762-20.211-36.666-20.211h-86.7c-23.899 0-45.476 9.892-60.902 25.787 11.736-6.13 25.072-9.615 39.229-9.615h88.195c14.344 0 27.631 7.545 34.98 19.864.46.771 1.354 1.17 2.235.998l.24-.047c15.32-2.989 31.301 2.692 41.297 15.359 5.987 7.587 9.01 17.096 9.01 26.76v112.745h21.673v-127.853c0-27.097-24.391-47.553-50.932-43.047z" fill="#2b4d66"/><path d="m315.494 504.471h-305.939c-5.232 0-9.473-4.241-9.473-9.473v-102.173c0-70.043 56.781-126.824 126.824-126.824h71.235c70.043 0 126.824 56.781 126.824 126.824v102.173c.002 5.232-4.239 9.473-9.471 9.473z" fill="#f1f1f4"/><path d="m198.142 266.001h-32.023c70.043 0 126.825 56.781 126.825 126.824v102.173c0 5.232-4.241 9.473-9.473 9.473h32.023c5.232 0 9.473-4.241 9.473-9.473v-102.173c0-70.043-56.781-126.824-126.825-126.824z" fill="#dfeaef"/><path d="m162.524 371.868 64.788-99.734h-129.575z" fill="#d5985c"/><g><path d="m162.524 379.481c-2.577 0-4.98-1.304-6.384-3.465l-64.788-99.734c-1.521-2.341-1.638-5.326-.306-7.779s3.899-3.981 6.69-3.981h129.575c2.791 0 5.359 1.527 6.69 3.981 1.332 2.453 1.214 5.438-.306 7.779l-64.787 99.734c-1.404 2.16-3.806 3.465-6.384 3.465zm-50.764-99.734 50.765 78.147 50.764-78.147z" fill="#dfeaef"/></g><g><path d="m121.725 512.084c-4.162 0-7.56-3.348-7.61-7.522-.808-67.762 40.214-133.956 41.961-136.74 2.234-3.561 6.933-4.638 10.494-2.404 3.561 2.233 4.638 6.93 2.405 10.491-.404.645-40.39 65.259-39.636 128.47.05 4.205-3.317 7.653-7.522 7.703-.03.002-.061.002-.092.002z" fill="#dfeaef"/></g><path d="m82.211 272.905 69.709 22.979c6.888 2.271 14.323 2.271 21.211 0l69.709-22.979c13.888-4.578 23.271-17.551 23.271-32.174v-77.74c0-.489-.01-.975-.031-1.46-.786-18.397-17.342-32.184-35.664-30.349-50.597 5.068-95.857-4.245-134.087-32.494-14.83-10.958-36.394-1.442-37.354 16.973-.023.434-.034.872-.034 1.314v123.757c-.001 14.623 9.382 27.595 23.27 32.173z" fill="#f1b986"/><g><path d="m266.079 161.532c-.786-18.397-17.342-32.184-35.664-30.349-1.31.131-2.614.247-3.917.359 6.223 5.499 10.336 13.344 10.718 22.284.021.485.031.971.031 1.46v77.74c0 14.623-9.383 27.596-23.271 32.174l-69.709 22.978c-3.431 1.131-6.997 1.697-10.564 1.701l18.217 6.004c6.888 2.271 14.323 2.271 21.211 0l69.709-22.978c13.888-4.578 23.271-17.55 23.271-32.173v-77.74c-.001-.489-.011-.976-.032-1.46z" fill="#e2a770"/></g><g><g><path d="m121.727 210.372c-4.204 0-7.613-3.408-7.613-7.613v-10.908c0-4.205 3.408-7.613 7.613-7.613 4.204 0 7.613 3.408 7.613 7.613v10.908c0 4.205-3.409 7.613-7.613 7.613z" fill="#2b4d66"/></g><g><path d="m203.323 210.372c-4.204 0-7.613-3.408-7.613-7.613v-10.908c0-4.205 3.408-7.613 7.613-7.613 4.204 0 7.613 3.408 7.613 7.613v10.908c0 4.205-3.409 7.613-7.613 7.613z" fill="#2b4d66"/></g></g><path d="m58.94 223.348h-9.08c-16.664 0-30.173-13.509-30.173-30.173 0-11.113 9.009-20.123 20.123-20.123h19.13z" fill="#d5985c"/><path d="m266.11 223.348h9.08c16.664 0 30.173-13.509 30.173-30.173 0-11.113-9.009-20.123-20.123-20.123h-19.13z" fill="#d5985c"/><path d="m162.525 293.736c-18.045 0-32.673-14.628-32.673-32.673v-20.458c0-18.045 14.628-32.673 32.673-32.673 18.045 0 32.673 14.628 32.673 32.673v20.458c0 18.045-14.628 32.673-32.673 32.673z" fill="#78d0b1"/><path d="m162.525 207.932c-3.564 0-6.991.579-10.202 1.634 13.047 4.286 22.47 16.559 22.47 31.039v20.458c0 14.481-9.424 26.753-22.47 31.039 3.211 1.055 6.638 1.634 10.202 1.634 18.045 0 32.673-14.628 32.673-32.673v-20.458c0-18.045-14.628-32.673-32.673-32.673z" fill="#61aab7"/><g><path d="m288.639 429.807h-68.9c-35.745 0-64.826-29.081-64.826-64.826v-91.545c0-4.205 3.408-7.613 7.613-7.613s7.613 3.408 7.613 7.613v91.545c0 27.35 22.251 49.601 49.601 49.601h68.9c27.35 0 49.601-22.25 49.601-49.601v-182.524c0-21.43 17.434-38.864 38.864-38.864h25.853c21.43 0 38.864 17.434 38.864 38.864v46.192c0 4.205-3.408 7.613-7.613 7.613s-7.613-3.408-7.613-7.613v-46.192c0-13.034-10.604-23.638-23.638-23.638h-25.853c-13.034 0-23.638 10.604-23.638 23.638v182.523c-.002 35.746-29.083 64.827-64.828 64.827z" fill="#365e7d"/></g><path d="m475.739 504.471h-83.066c-10.308 0-18.664-8.356-18.664-18.664v-214.907c0-10.308 8.356-18.664 18.664-18.664h83.066c10.308 0 18.664 8.356 18.664 18.664v214.907c.001 10.308-8.356 18.664-18.664 18.664z" fill="#78d0b1"/><path d="m475.739 252.236h-19.895c10.308 0 18.664 8.356 18.664 18.664v214.907c0 10.308-8.356 18.665-18.664 18.665h19.895c10.308 0 18.664-8.357 18.664-18.665v-214.907c.001-10.308-8.356-18.664-18.664-18.664z" fill="#61aab7"/><g><path d="m504.389 292.411h-140.365c-4.205 0-7.613-3.408-7.613-7.613s3.408-7.613 7.613-7.613h140.365c4.205 0 7.613 3.408 7.613 7.613-.001 4.205-3.409 7.613-7.613 7.613z" fill="#dfeaef"/></g><g><path d="m504.389 474.062h-140.365c-4.205 0-7.613-3.408-7.613-7.613s3.408-7.613 7.613-7.613h140.365c4.205 0 7.613 3.408 7.613 7.613-.001 4.205-3.409 7.613-7.613 7.613z" fill="#dfeaef"/></g><path d="m494.404 438.477h-34.284c-14.312 0-25.914-11.602-25.914-25.914v-68.42c0-14.312 11.602-25.914 25.914-25.914h34.283v120.248z" fill="#f1f1f4"/><path d="m474.508 318.229h19.895v120.248h-19.895z" fill="#dfeaef"/><path d="m463.121 252.236h-57.829v-23.597c0-5.6 4.54-10.14 10.14-10.14h37.549c5.6 0 10.14 4.54 10.14 10.14z" fill="#365e7d"/><path d="m452.981 218.499h-20.481c5.6 0 10.14 4.54 10.14 10.14v23.597h20.481v-23.597c0-5.6-4.54-10.14-10.14-10.14z" fill="#2b4d66"/></g></svg>