<svg id="Capa_1" enable-background="new 0 0 512 512" height="512" viewBox="0 0 512 512" width="512" xmlns="http://www.w3.org/2000/svg" xmlns:xlink="http://www.w3.org/1999/xlink"><linearGradient id="SVGID_1_" gradientUnits="userSpaceOnUse" x1="256" x2="256" y1="271" y2="61"><stop offset="0" stop-color="#ffc2cc"/><stop offset="1" stop-color="#fff2f4"/></linearGradient><linearGradient id="SVGID_2_" gradientUnits="userSpaceOnUse" x1="256" x2="256" y1="481" y2="31"><stop offset="0" stop-color="#fd3a84"/><stop offset="1" stop-color="#ffa68d"/></linearGradient><g><g><g><path d="m196 61h-90c-8.284 0-15 6.716-15 15v165c0 16.569 13.431 30 30 30h60c16.569 0 30-13.431 30-30v-165c0-8.284-6.716-15-15-15zm210 0h-90c-8.284 0-15 6.716-15 15v135c0 16.569 13.431 30 30 30h60c16.569 0 30-13.431 30-30v-135c0-8.284-6.716-15-15-15z" fill="url(#SVGID_1_)"/></g></g><g><g><path d="m467 151h-422c-24.814 0-45 20.186-45 45v270c0 8.291 6.709 15 15 15h482c8.291 0 15-6.709 15-15v-270c0-24.814-20.186-45-45-45zm15 300h-452v-255c0-8.276 6.738-15 15-15h422c8.262 0 15 6.724 15 15zm-391-93.385c0 29.894 20.345 57.674 49.84 62.544 37.54 6.199 70.16-22.735 70.16-59.159v-120h-120zm210 0c0 29.894 20.345 57.674 49.84 62.544 37.54 6.199 70.16-22.735 70.16-59.159v-150h-120zm-225-266.615h150c8.291 0 15-6.709 15-15v-30c0-8.291-6.709-15-15-15h-150c-8.291 0-15 6.709-15 15v30c0 8.291 6.709 15 15 15zm210 0h150c8.291 0 15-6.709 15-15v-30c0-8.291-6.709-15-15-15h-150c-8.291 0-15 6.709-15 15v30c0 8.291 6.709 15 15 15z" fill="url(#SVGID_2_)"/></g></g></g></svg>